<svg width="60" height="60" viewBox="0 0 60 60" fill="none" xmlns="http://www.w3.org/2000/svg">
<path d="M60 30C60 46.5685 46.5685 60 30 60C13.4315 60 0 46.5685 0 30C0 13.4315 13.4315 0 30 0C46.5685 0 60 13.4315 60 30ZM8.04 30C8.04 42.1282 17.8718 51.96 30 51.96C42.1282 51.96 51.96 42.1282 51.96 30C51.96 17.8718 42.1282 8.04 30 8.04C17.8718 8.04 8.04 17.8718 8.04 30Z" fill="#F13005" fill-opacity="0.1"/>
<path d="M30 -1.31134e-06C46.5685 -2.03558e-06 60 13.4315 60 30C60 46.5685 46.5685 60 30 60C13.4315 60 -5.87108e-07 46.5685 -1.31134e-06 30C-2.03558e-06 13.4315 13.4315 -5.87108e-07 30 -1.31134e-06ZM30 51.96C42.1282 51.96 51.96 42.1282 51.96 30C51.96 17.8718 42.1282 8.04 30 8.04C17.8718 8.04 8.04 17.8718 8.04 30C8.04 42.1282 17.8718 51.96 30 51.96Z" fill="url(#paint0_angular_21_591)"/>
<circle cx="56" cy="30" r="4" transform="rotate(-90 56 30)" fill="#F13005"/>
<defs>
<radialGradient id="paint0_angular_21_591" cx="0" cy="0" r="1" gradientUnits="userSpaceOnUse" gradientTransform="translate(30 30) scale(30)">
<stop stop-color="#F13005"/>
<stop offset="1" stop-color="#F13005" stop-opacity="0"/>
</radialGradient>
</defs>
</svg>
