<svg width="97" height="109" viewBox="0 0 97 109" fill="none" xmlns="http://www.w3.org/2000/svg">
<g clip-path="url(#clip0_11_561)" filter="url(#filter0_d_11_561)">
<path d="M13.885 35.7407L4 101H19.8858L16.7924 35.8945C16.7847 35.5195 16.6378 35.1613 16.3812 34.892C16.1246 34.6227 15.7772 34.4622 15.409 34.4427C15.0407 34.4232 14.6789 34.5462 14.3962 34.787C14.1135 35.0278 13.9308 35.3685 13.885 35.7407Z" fill="#FFA305"/>
<path d="M87.5865 67.0337L80.9926 25.633C80.7908 24.3928 80.1639 23.2653 79.2231 22.4502C78.2823 21.6351 77.0882 21.1849 75.8524 21.1794H70.8169V12.2842C70.8138 9.0282 69.5412 5.90638 67.2782 3.6035C65.0152 1.30062 61.9466 0.00469689 58.7455 0L43.2144 0C40.0122 0.00468944 36.9424 1.30023 34.6776 3.60278C32.4128 5.90532 31.1376 9.02711 31.1314 12.2842V21.1972H25.5144C24.795 21.2006 24.084 21.355 23.4258 21.6505C22.7676 21.946 22.1764 22.3764 21.6892 22.9148C21.2019 23.4532 20.829 24.088 20.5937 24.7795C20.3585 25.4711 20.2659 26.2046 20.3219 26.9341L25.7935 95.3399L26.2471 100.994H93L87.5865 67.0337ZM68.7933 26.9874C69.5512 26.9874 70.2921 27.2159 70.9222 27.6442C71.5524 28.0725 72.0435 28.6812 72.3335 29.3934C72.6236 30.1056 72.6995 30.8893 72.5516 31.6453C72.4038 32.4014 72.0388 33.0959 71.5029 33.6409C70.967 34.186 70.2842 34.5572 69.5409 34.7076C68.7976 34.858 68.0271 34.7808 67.3269 34.4858C66.6268 34.1908 66.0283 33.6913 65.6072 33.0503C65.1862 32.4094 64.9614 31.6558 64.9614 30.8849C64.9607 30.3729 65.0593 29.8657 65.2516 29.3925C65.4439 28.9192 65.7261 28.4893 66.0821 28.1272C66.438 27.7651 66.8608 27.478 67.326 27.2825C67.7913 27.0869 68.2899 26.9866 68.7933 26.9874ZM68.5433 70.2452L61.211 77.7624L52.3377 68.6838L50.0874 76.5972C49.969 77.0168 49.7154 77.3837 49.3672 77.639C49.019 77.8943 48.5966 78.023 48.1678 78.0046C47.739 77.9862 47.3288 77.8216 47.003 77.5374C46.6773 77.2532 46.455 76.8658 46.3718 76.4376L41.6677 52.5493C41.6095 52.2359 41.6278 51.9126 41.7209 51.608C41.814 51.3034 41.9791 51.0266 42.2017 50.8019C42.4243 50.5772 42.6977 50.4114 42.998 50.3191C43.2982 50.2268 43.6161 50.2107 43.9238 50.2723L67.2583 55.0689C67.6782 55.1593 68.0565 55.3894 68.3334 55.7229C68.6103 56.0565 68.7701 56.4744 68.7874 56.9106C68.8048 57.3468 68.6787 57.7764 68.4292 58.1316C68.1796 58.4868 67.8208 58.7472 67.4094 58.8718L59.6642 61.1607L68.5433 70.2452ZM35.5623 12.2842C35.5638 11.2636 35.7629 10.2533 36.1483 9.31106C36.5337 8.36877 37.0978 7.51291 37.8083 6.79236C38.5189 6.07181 39.362 5.50067 40.2896 5.11155C41.2172 4.72243 42.211 4.52295 43.2144 4.52451H58.7455C60.7669 4.5292 62.704 5.34843 64.1328 6.8028C65.5616 8.25718 66.3655 10.2282 66.3686 12.2842V21.1972H35.5855L35.5623 12.2842ZM33.3585 26.9874C34.1164 26.9874 34.8572 27.2159 35.4874 27.6442C36.1175 28.0725 36.6087 28.6812 36.8987 29.3934C37.1887 30.1056 37.2646 30.8893 37.1167 31.6453C36.9689 32.4014 36.6039 33.0959 36.068 33.6409C35.5321 34.186 34.8494 34.5572 34.106 34.7076C33.3627 34.858 32.5923 34.7808 31.8921 34.4858C31.1919 34.1908 30.5934 33.6913 30.1724 33.0503C29.7513 32.4094 29.5266 31.6558 29.5266 30.8849C29.5266 29.8512 29.9303 28.8599 30.6489 28.1289C31.3675 27.398 32.3422 26.9874 33.3585 26.9874Z" fill="#F13005"/>
</g>
<defs>
<filter id="filter0_d_11_561" x="0" y="0" width="97" height="109" filterUnits="userSpaceOnUse" color-interpolation-filters="sRGB">
<feFlood flood-opacity="0" result="BackgroundImageFix"/>
<feColorMatrix in="SourceAlpha" type="matrix" values="0 0 0 0 0 0 0 0 0 0 0 0 0 0 0 0 0 0 127 0" result="hardAlpha"/>
<feOffset dy="4"/>
<feGaussianBlur stdDeviation="2"/>
<feComposite in2="hardAlpha" operator="out"/>
<feColorMatrix type="matrix" values="0 0 0 0 0 0 0 0 0 0 0 0 0 0 0 0 0 0 0.25 0"/>
<feBlend mode="normal" in2="BackgroundImageFix" result="effect1_dropShadow_11_561"/>
<feBlend mode="normal" in="SourceGraphic" in2="effect1_dropShadow_11_561" result="shape"/>
</filter>
<clipPath id="clip0_11_561">
<rect width="89" height="101" fill="white" transform="translate(4)"/>
</clipPath>
</defs>
</svg>
