<svg width="89" height="99" viewBox="0 0 89 99" fill="none" xmlns="http://www.w3.org/2000/svg">
<g clip-path="url(#clip0_247_1250)">
<path d="M9.88501 35.0329L0 99H15.8858L12.7924 35.1837C12.7847 34.8161 12.6378 34.4651 12.3812 34.2011C12.1246 33.9371 11.7772 33.7797 11.409 33.7606C11.0407 33.7415 10.6789 33.8621 10.3962 34.0982C10.1135 34.3342 9.93084 34.6681 9.88501 35.0329Z" fill="#FFA305"/>
<path d="M83.5866 65.7063L76.9927 25.1254C76.7909 23.9098 76.1641 22.8046 75.2232 22.0056C74.2824 21.2066 73.0884 20.7654 71.8525 20.76H66.817V12.0409C66.8139 8.84942 65.5413 5.78942 63.2783 3.53214C61.0153 1.27486 57.9467 0.00460388 54.7456 0L39.2145 0C36.0124 0.00459658 32.9426 1.27448 30.6777 3.53143C28.4129 5.78838 27.1377 8.84836 27.1316 12.0409V20.7774H21.5145C20.7951 20.7808 20.0841 20.9321 19.4259 21.2218C18.7678 21.5115 18.1766 21.9333 17.6893 22.461C17.202 22.9888 16.8291 23.611 16.5938 24.2888C16.3586 24.9667 16.266 25.6857 16.322 26.4008L21.7937 93.452L22.2472 98.9942H89.0001L83.5866 65.7063ZM64.7935 26.4529C65.5513 26.4529 66.2922 26.677 66.9224 27.0968C67.5525 27.5166 68.0436 28.1133 68.3337 28.8113C68.6237 29.5094 68.6996 30.2776 68.5517 31.0187C68.4039 31.7598 68.0389 32.4405 67.503 32.9748C66.9671 33.5091 66.2843 33.8729 65.541 34.0203C64.7977 34.1678 64.0272 34.0921 63.3271 33.8029C62.6269 33.5138 62.0284 33.0241 61.6074 32.3959C61.1863 31.7676 60.9616 31.029 60.9616 30.2733C60.9608 29.7714 61.0594 29.2743 61.2517 28.8104C61.444 28.3466 61.7262 27.9251 62.0822 27.5702C62.4382 27.2153 62.8609 26.9339 63.3262 26.7422C63.7914 26.5505 64.29 26.4522 64.7935 26.4529ZM64.5434 68.8542L57.2111 76.2225L48.3378 67.3237L46.0875 75.0805C45.9691 75.4917 45.7155 75.8514 45.3673 76.1016C45.0192 76.3518 44.5967 76.478 44.1679 76.4599C43.7392 76.4419 43.3289 76.2806 43.0032 76.002C42.6774 75.7234 42.4551 75.3437 42.3719 74.9239L37.6678 51.5088C37.6096 51.2015 37.6279 50.8847 37.721 50.5861C37.8141 50.2874 37.9792 50.0161 38.2018 49.7959C38.4245 49.5756 38.6979 49.4131 38.9981 49.3227C39.2983 49.2322 39.6162 49.2164 39.9239 49.2768L63.2584 53.9784C63.6783 54.067 64.0566 54.2926 64.3335 54.6195C64.6105 54.9464 64.7702 55.356 64.7876 55.7836C64.8049 56.2112 64.6788 56.6323 64.4293 56.9805C64.1797 57.3286 63.8209 57.5839 63.4096 57.706L55.6644 59.9496L64.5434 68.8542ZM31.5624 12.0409C31.5639 11.0406 31.763 10.0503 32.1484 9.12668C32.5338 8.20305 33.0979 7.36414 33.8085 6.65786C34.519 5.95157 35.3622 5.39174 36.2897 5.01033C37.2173 4.62892 38.2112 4.43339 39.2145 4.43491H54.7456C56.767 4.43951 58.7042 5.24252 60.1329 6.66809C61.5617 8.09367 62.3657 10.0256 62.3687 12.0409V20.7774H31.5856L31.5624 12.0409ZM29.3586 26.4529C30.1165 26.4529 30.8573 26.677 31.4875 27.0968C32.1176 27.5166 32.6088 28.1133 32.8988 28.8113C33.1888 29.5094 33.2647 30.2776 33.1169 31.0187C32.969 31.7598 32.6041 32.4405 32.0682 32.9748C31.5323 33.5091 30.8495 33.8729 30.1062 34.0203C29.3628 34.1678 28.5924 34.0921 27.8922 33.8029C27.192 33.5138 26.5935 33.0241 26.1725 32.3959C25.7514 31.7676 25.5267 31.029 25.5267 30.2733C25.5267 29.2601 25.9304 28.2884 26.649 27.5719C27.3677 26.8555 28.3423 26.4529 29.3586 26.4529Z" fill="#F13005"/>
</g>
<defs>
<clipPath id="clip0_247_1250">
<rect width="89" height="99" fill="white"/>
</clipPath>
</defs>
</svg>
