<svg width="19" height="18" viewBox="0 0 19 18" fill="none" xmlns="http://www.w3.org/2000/svg">
<path d="M16.0067 9V17H2.99219V9" stroke="white" stroke-width="1.5" stroke-linecap="round" stroke-linejoin="round"/>
<path d="M18 4.8606H1V9.04088H18V4.8606Z" stroke="white" stroke-width="1.5" stroke-linecap="round" stroke-linejoin="round"/>
<path d="M9.5 16.3564V4.8606" stroke="white" stroke-width="1.5" stroke-linecap="round" stroke-linejoin="round"/>
<path d="M9.50009 5.00054H5.83978C5.30043 5.00054 4.78317 4.78979 4.40179 4.41467C4.02041 4.03955 3.80615 3.53077 3.80615 3.00027C3.80615 2.46976 4.02041 1.96099 4.40179 1.58587C4.78317 1.21074 5.30043 1 5.83978 1C8.68621 1 9.50009 5.00054 9.50009 5.00054Z" stroke="white" stroke-width="1.5" stroke-linecap="round" stroke-linejoin="round"/>
<path d="M9.5 5.00054H13.1603C13.4274 5.00054 13.6918 4.9488 13.9385 4.84827C14.1853 4.74775 14.4095 4.60041 14.5983 4.41467C14.7871 4.22893 14.9369 4.00842 15.0391 3.76574C15.1413 3.52305 15.1939 3.26295 15.1939 3.00027C15.1939 2.73759 15.1413 2.47748 15.0391 2.2348C14.9369 1.99211 14.7871 1.77161 14.5983 1.58587C14.4095 1.40012 14.1853 1.25278 13.9385 1.15226C13.6918 1.05174 13.4274 1 13.1603 1C10.3139 1 9.5 5.00054 9.5 5.00054Z" stroke="white" stroke-width="1.5" stroke-linecap="round" stroke-linejoin="round"/>
</svg>
