<svg width="22" height="19" viewBox="0 0 22 19" fill="none" xmlns="http://www.w3.org/2000/svg">
<path d="M15.5835 0C14.6451 0.0145958 13.7272 0.276545 12.9224 0.759393C12.1177 1.24224 11.4546 1.92889 11.0001 2.75C10.5457 1.92889 9.88257 1.24224 9.07782 0.759393C8.27308 0.276545 7.35517 0.0145958 6.41679 0C4.92091 0.0649923 3.51155 0.719378 2.49661 1.82019C1.48168 2.92101 0.943669 4.37877 1.00013 5.875C1.00013 11.5208 10.1301 18.0417 10.5185 18.3183L11.0001 18.6592L11.4818 18.3183C11.8701 18.0433 21.0001 11.5208 21.0001 5.875C21.0566 4.37877 20.5186 2.92101 19.5036 1.82019C18.4887 0.719378 17.0793 0.0649923 15.5835 0ZM11.0001 16.6075C8.28929 14.5825 2.66679 9.6075 2.66679 5.875C2.60983 4.8206 2.9721 3.78644 3.6746 2.99808C4.37709 2.20972 5.36282 1.73113 6.41679 1.66667C7.47077 1.73113 8.45649 2.20972 9.15899 2.99808C9.86149 3.78644 10.2238 4.8206 10.1668 5.875H11.8335C11.7765 4.8206 12.1388 3.78644 12.8413 2.99808C13.5438 2.20972 14.5295 1.73113 15.5835 1.66667C16.6374 1.73113 17.6232 2.20972 18.3257 2.99808C19.0282 3.78644 19.3904 4.8206 19.3335 5.875C19.3335 9.60917 13.711 14.5825 11.0001 16.6075Z" fill="black"/>
</svg>
