<svg width="26" height="26" viewBox="0 0 26 26" fill="none" xmlns="http://www.w3.org/2000/svg">
<g clip-path="url(#clip0_259_2014)">
<path d="M18.9587 0.993408C17.7388 1.01238 16.5455 1.35292 15.4994 1.98062C14.4532 2.60832 13.5912 3.50097 13.0004 4.56841C12.4096 3.50097 11.5475 2.60832 10.5014 1.98062C9.4552 1.35292 8.26192 1.01238 7.04203 0.993408C5.09738 1.0779 3.26521 1.9286 1.94579 3.35966C0.626376 4.79072 -0.0730347 6.68581 0.000361716 8.63091C0.000361716 15.9705 11.8694 24.4476 12.3742 24.8072L13.0004 25.2503L13.6265 24.8072C14.1314 24.4497 26.0004 15.9705 26.0004 8.63091C26.0738 6.68581 25.3743 4.79072 24.0549 3.35966C22.7355 1.9286 20.9033 1.0779 18.9587 0.993408ZM13.0004 22.5832C9.47628 19.9507 2.16703 13.4832 2.16703 8.63091C2.09297 7.26018 2.56393 5.91578 3.47717 4.89092C4.39042 3.86605 5.67187 3.24387 7.04203 3.16007C8.41219 3.24387 9.69364 3.86605 10.6069 4.89092C11.5201 5.91578 11.9911 7.26018 11.917 8.63091H14.0837C14.0096 7.26018 14.4806 5.91578 15.3938 4.89092C16.3071 3.86605 17.5885 3.24387 18.9587 3.16007C20.3289 3.24387 21.6103 3.86605 22.5236 4.89092C23.4368 5.91578 23.9078 7.26018 23.8337 8.63091C23.8337 13.4853 16.5244 19.9507 13.0004 22.5832Z" fill="#222222"/>
</g>
<defs>
<clipPath id="clip0_259_2014">
<rect width="26" height="26" fill="white"/>
</clipPath>
</defs>
</svg>
