<svg width="12" height="20" viewBox="0 0 12 20" fill="none" xmlns="http://www.w3.org/2000/svg">
<path d="M10.1766 1.61406C8.8875 0.634375 7.43438 0.296875 5.59219 0.296875C4.19531 0.296875 3 0.582812 2.05313 1.22031C0.65625 2.17187 0 3.77031 0 6.29688H3.6C3.6 5.62187 3.53438 4.89531 3.92813 4.27188C4.32188 3.64844 4.87031 3.17031 5.8125 3.17031C6.76875 3.17031 7.26094 3.44687 7.725 4.01875C8.11875 4.50625 8.26875 5.0875 8.26875 5.70625C8.26875 6.24062 7.99688 6.73281 7.67344 7.17813C7.49531 7.44063 7.26094 7.675 6.96563 7.9C6.96563 7.9 5.02031 9.05781 4.33594 10.1547C3.825 10.9703 3.64219 11.9922 3.6 13.2156C3.59531 13.3047 3.62812 13.4875 3.9375 13.4875C4.24219 13.4875 6.5625 13.4875 6.83437 13.4875C7.10625 13.4875 7.1625 13.2813 7.16719 13.1969C7.18594 12.7516 7.24219 12.0672 7.32188 11.8094C7.47656 11.3219 7.77656 10.8953 8.24531 10.5297L9.21563 9.85938C10.0922 9.175 10.7906 8.61719 11.1 8.17656C11.6297 7.45469 12 6.56406 12 5.50937C12 3.78906 11.3672 2.51875 10.1766 1.61406ZM5.34375 15.3531C4.12969 15.3156 3.12656 16.1594 3.08438 17.4766C3.04688 18.7984 3.99844 19.6656 5.21719 19.7031C6.48281 19.7406 7.4625 18.925 7.5 17.6078C7.5375 16.2906 6.60938 15.3906 5.34375 15.3531Z" fill="white"/>
</svg>
