<svg width="24" height="24" viewBox="0 0 24 24" fill="none" xmlns="http://www.w3.org/2000/svg">
<path d="M11.5 14.9926C9.91219 14.9926 8.625 16.3358 8.625 17.9926V23.9926H14.375V17.9926C14.375 16.3358 13.0878 14.9926 11.5 14.9926Z" fill="#F13005"/>
<path d="M16.2917 17.9926V23.9926H20.125C21.7128 23.9926 23 22.6495 23 20.9926V11.8716C23.0002 11.3521 22.8067 10.8529 22.4604 10.4796L14.3166 1.29261C12.8796 -0.329735 10.4544 -0.429344 8.89961 1.07009C8.82576 1.14134 8.7546 1.21555 8.68636 1.29261L0.556807 10.4766C0.200037 10.8515 -0.000134698 11.3584 6.8004e-08 11.8866V20.9926C6.8004e-08 22.6495 1.28719 23.9926 2.875 23.9926H6.70832V17.9926C6.72624 15.2658 8.83609 13.0391 11.3835 12.9749C14.0161 12.9087 16.2716 15.1733 16.2917 17.9926Z" fill="#F13005"/>
<path d="M11.5 14.9926C9.91219 14.9926 8.625 16.3358 8.625 17.9926V23.9926H14.375V17.9926C14.375 16.3358 13.0878 14.9926 11.5 14.9926Z" fill="#F13005"/>
</svg>
