<svg width="18" height="18" viewBox="0 0 18 18" fill="none" xmlns="http://www.w3.org/2000/svg">
<path d="M17.9242 7.39523C17.8239 7.29774 17.8239 7.20025 17.7235 7.10387L15.7207 5.15738C15.5323 4.98882 15.284 4.89763 15.028 4.90293C14.7719 4.90822 14.5279 5.0096 14.3471 5.18579C14.1663 5.36199 14.0627 5.59933 14.0581 5.84807C14.0535 6.09681 14.1482 6.33762 14.3223 6.52004L14.6223 6.8114H12.0161C11.7505 6.8114 11.4958 6.91388 11.308 7.09629C11.1202 7.27871 11.0146 7.52611 11.0146 7.78409C11.0146 8.04206 11.1202 8.28947 11.308 8.47188C11.4958 8.6543 11.7505 8.75678 12.0161 8.75678H14.62L14.32 9.04814C14.226 9.13607 14.1513 9.24154 14.1003 9.35823C14.0493 9.47492 14.0232 9.60041 14.0234 9.72717C14.0236 9.85393 14.0502 9.97933 14.1016 10.0959C14.1529 10.2124 14.228 10.3176 14.3223 10.4053C14.4127 10.4974 14.5215 10.5707 14.642 10.6209C14.7624 10.671 14.8921 10.6968 15.0232 10.6968C15.1543 10.6968 15.2839 10.671 15.4044 10.6209C15.5249 10.5707 15.6336 10.4974 15.7241 10.4053L17.7269 8.45987C17.8273 8.36238 17.9277 8.26489 17.9277 8.16851C18.0255 7.91929 18.0242 7.64363 17.9242 7.39523Z" fill="white"/>
<path d="M13.0174 10.7011C12.8837 10.6932 12.7499 10.7129 12.6247 10.759C12.4995 10.805 12.3858 10.8764 12.2911 10.9684C12.1964 11.0603 12.123 11.1708 12.0755 11.2924C12.0281 11.414 12.0078 11.544 12.0159 11.6738V12.6465C12.0241 12.7763 12.0038 12.9063 11.9564 13.0279C11.9089 13.1495 11.8354 13.2599 11.7408 13.3519C11.6461 13.4438 11.5324 13.5152 11.4072 13.5613C11.282 13.6074 11.1481 13.6271 11.0145 13.6192H10.0131V5.25491C10.0202 4.66662 9.84176 4.09031 9.50165 3.60349C9.16153 3.11666 8.67609 2.74268 8.11061 2.53182L6.51381 1.94799H11.0202C11.1539 1.94006 11.2877 1.95979 11.4129 2.00586C11.5381 2.05194 11.6518 2.12332 11.7465 2.21527C11.8411 2.30723 11.9146 2.41766 11.9621 2.53927C12.0095 2.66087 12.0298 2.79088 12.0216 2.92068V3.89337C12.0216 4.15134 12.1271 4.39875 12.3149 4.58116C12.5028 4.76358 12.7575 4.86605 13.0231 4.86605C13.2887 4.86605 13.5434 4.76358 13.7312 4.58116C13.919 4.39875 14.0245 4.15134 14.0245 3.89337V2.92068C14.0318 2.53505 13.9589 2.15196 13.8101 1.79436C13.6614 1.43676 13.4398 1.112 13.1588 0.839531C12.8777 0.567066 12.543 0.352503 12.1745 0.208695C11.8061 0.0648863 11.4115 -0.00520846 11.0145 0.0026092H1.00142C0.947107 -0.00379688 0.892004 0.00162885 0.840117 0.0184922C0.78823 0.0353555 0.740861 0.0632331 0.701452 0.1001C0.625338 0.110323 0.5548 0.14458 0.500712 0.19759L0.400341 0.295081C0.348245 0.298456 0.29918 0.320083 0.262261 0.355943C0.225341 0.391803 0.203076 0.43946 0.199601 0.490062V0.587552C0.14843 0.591052 0.100221 0.612161 0.0636358 0.647087C0.0270507 0.682014 0.00448736 0.728467 0 0.778102V14.5918C0.00476172 14.778 0.0637584 14.959 0.170147 15.1139C0.276536 15.2688 0.425958 15.3913 0.601082 15.467L7.20956 17.8988C7.43376 17.9786 7.67275 18.0119 7.91101 17.9963C8.1121 18.0063 8.31323 17.9771 8.50248 17.9103C8.69173 17.8435 8.86526 17.7405 9.01281 17.6074C9.26872 17.4268 9.48163 17.1948 9.6371 16.9271C9.79257 16.6595 9.88696 16.3626 9.91386 16.0564V15.5701H10.9153C11.3119 15.5766 11.7058 15.5053 12.0735 15.3605C12.4411 15.2158 12.7749 15.0005 13.0549 14.7276C13.335 14.4547 13.5554 14.1297 13.7032 13.7721C13.851 13.4145 13.923 13.0317 13.915 12.6465V11.6738C13.9354 11.5502 13.9271 11.4237 13.8907 11.3036C13.8543 11.1836 13.7908 11.0729 13.7048 10.9797C13.6188 10.8865 13.5124 10.8131 13.3935 10.7649C13.2746 10.7167 13.1461 10.6949 13.0174 10.7011ZM2.00285 13.9138V2.33684L7.30993 4.28222C7.50552 4.36888 7.67369 4.50476 7.79703 4.67579C7.92036 4.84681 7.99437 5.04676 8.01138 5.25491V14.5918V16.0509L2.00285 13.9138Z" fill="white"/>
</svg>
