<svg width="19" height="21" viewBox="0 0 19 21" fill="none" xmlns="http://www.w3.org/2000/svg">
<path d="M9.04611 0.100932L1.04922 3.88075C0.921198 3.9415 0.806797 4.02727 0.712852 4.13298C0.618907 4.2387 0.547347 4.36218 0.502445 4.49602C0.170986 5.47521 0.00130365 6.50135 0 7.53455C0 17.5637 9.14322 20.9382 9.14322 20.9382C9.37386 21.0206 9.62614 21.0206 9.85678 20.9382C9.85678 20.9382 19 17.5637 19 7.53455C18.9981 6.50234 18.8281 5.47726 18.4965 4.49916C18.4516 4.36532 18.38 4.24187 18.2861 4.13616C18.1921 4.03044 18.0777 3.94464 17.9497 3.88389L9.95283 0.104072C9.81162 0.0355838 9.65658 0 9.49947 0C9.34237 0 9.18732 0.0355838 9.04611 0.104072V0.100932ZM9.5 2.21342L16.5596 5.55016C16.7607 6.19339 16.8715 6.86115 16.8889 7.53455C16.9605 9.93793 16.2909 12.3055 14.97 14.3193C13.6491 16.333 11.7403 17.8964 9.5 18.7994C7.25967 17.8964 5.35086 16.333 4.03 14.3193C2.70915 12.3055 2.03953 9.93793 2.11111 7.53455C2.12873 6.86075 2.23991 6.19262 2.4415 5.54911L9.5 2.21342Z" fill="white"/>
<path d="M12.8706 6.72924L9.00938 11.9664L7.13154 9.81084C6.94804 9.60032 6.68797 9.47095 6.40856 9.45117C6.12914 9.43138 5.85327 9.52279 5.64163 9.70532C5.42998 9.88786 5.29991 10.1465 5.28001 10.4245C5.26012 10.7024 5.35204 10.9768 5.53554 11.1873L8.27999 14.3372C8.38369 14.4566 8.51313 14.5513 8.65868 14.6141C8.80423 14.6769 8.96214 14.7063 9.12067 14.7C9.2792 14.6938 9.43428 14.652 9.57437 14.5779C9.71446 14.5038 9.83595 14.3993 9.92982 14.2721L14.5743 7.9724C14.6566 7.86114 14.7161 7.73481 14.7492 7.60065C14.7824 7.46649 14.7886 7.32714 14.7675 7.19058C14.7464 7.05403 14.6985 6.92294 14.6264 6.80486C14.5543 6.68678 14.4594 6.58401 14.3473 6.50245C14.2369 6.41697 14.1101 6.35483 13.9747 6.31984C13.8392 6.28486 13.6981 6.27778 13.5598 6.29902C13.4215 6.32025 13.289 6.36938 13.1705 6.44336C13.052 6.51735 12.95 6.61462 12.8706 6.72924Z" fill="white"/>
</svg>
