<svg width="18" height="18" viewBox="0 0 18 18" fill="none" xmlns="http://www.w3.org/2000/svg">
<path d="M14.2504 18H12.7505C12.5516 18 12.3608 17.921 12.2202 17.7803C12.0795 17.6397 12.0005 17.4489 12.0005 17.25C12.0005 17.0511 12.0795 16.8603 12.2202 16.7197C12.3608 16.579 12.5516 16.5 12.7505 16.5H14.2504C14.8472 16.5 15.4195 16.263 15.8414 15.841C16.2634 15.4191 16.5004 14.8468 16.5004 14.2501V12.7501C16.5004 12.5512 16.5794 12.3604 16.7201 12.2198C16.8607 12.0791 17.0515 12.0001 17.2504 12.0001C17.4493 12.0001 17.6401 12.0791 17.7807 12.2198C17.9214 12.3604 18.0004 12.5512 18.0004 12.7501V14.2501C17.9992 15.2443 17.6037 16.1974 16.9007 16.9004C16.1977 17.6034 15.2446 17.9988 14.2504 18Z" fill="white"/>
<path d="M0.749985 5.99988C0.551077 5.99988 0.360315 5.92087 0.219666 5.78022C0.0790161 5.63957 0 5.4488 0 5.2499V3.74993C0.00119087 2.75575 0.396654 1.80263 1.09964 1.09964C1.80263 0.396654 2.75575 0.00119087 3.74993 0L5.2499 0C5.4488 0 5.63957 0.0790161 5.78022 0.219666C5.92087 0.360315 5.99988 0.551077 5.99988 0.749985C5.99988 0.948894 5.92087 1.13966 5.78022 1.2803C5.63957 1.42095 5.4488 1.49997 5.2499 1.49997H3.74993C3.1532 1.49997 2.58092 1.73702 2.15897 2.15897C1.73702 2.58092 1.49997 3.1532 1.49997 3.74993V5.2499C1.49997 5.4488 1.42095 5.63957 1.2803 5.78022C1.13966 5.92087 0.948894 5.99988 0.749985 5.99988Z" fill="white"/>
<path d="M5.2499 18H3.74993C2.75575 17.9988 1.80263 17.6034 1.09964 16.9004C0.396654 16.1974 0.00119087 15.2443 0 14.2501L0 12.7501C0 12.5512 0.0790161 12.3604 0.219666 12.2198C0.360315 12.0791 0.551077 12.0001 0.749985 12.0001C0.948894 12.0001 1.13966 12.0791 1.2803 12.2198C1.42095 12.3604 1.49997 12.5512 1.49997 12.7501V14.2501C1.49997 14.8468 1.73702 15.4191 2.15897 15.841C2.58092 16.263 3.1532 16.5 3.74993 16.5H5.2499C5.4488 16.5 5.63957 16.579 5.78022 16.7197C5.92087 16.8603 5.99988 17.0511 5.99988 17.25C5.99988 17.4489 5.92087 17.6397 5.78022 17.7803C5.63957 17.921 5.4488 18 5.2499 18Z" fill="white"/>
<path d="M17.2504 6C17.0515 6 16.8607 5.92099 16.7201 5.78034C16.5794 5.63969 16.5004 5.44893 16.5004 5.25002V3.75005C16.5004 3.15332 16.2634 2.58104 15.8414 2.15909C15.4195 1.73714 14.8472 1.50009 14.2504 1.50009H12.7505C12.5516 1.50009 12.3608 1.42108 12.2202 1.28043C12.0795 1.13978 12.0005 0.949016 12.0005 0.750107C12.0005 0.551199 12.0795 0.360437 12.2202 0.219788C12.3608 0.0791382 12.5516 0.00012207 12.7505 0.00012207L14.2504 0.00012207C15.2446 0.00131294 16.1977 0.396776 16.9007 1.09977C17.6037 1.80275 17.9992 2.75587 18.0004 3.75005V5.25002C18.0004 5.44893 17.9214 5.63969 17.7807 5.78034C17.6401 5.92099 17.4493 6 17.2504 6Z" fill="white"/>
<rect x="2.7002" y="8.10022" width="12.5998" height="1.79996" rx="0.899982" fill="white"/>
</svg>
