<svg width="14" height="14" viewBox="0 0 14 14" fill="none" xmlns="http://www.w3.org/2000/svg">
<path d="M13.9633 5.43472C13.6961 5.72169 13.4369 6.00866 13.1665 6.28402C12.4401 7.02549 11.7057 7.76033 10.9745 8.49682C10.8593 8.61294 10.7361 8.72407 10.6305 8.8518C10.5889 8.90322 10.5617 8.99445 10.5729 9.05915C10.8385 10.6964 11.1089 12.3319 11.3793 13.9691C11.3809 13.9758 11.3793 13.984 11.3777 13.9957C11.3745 14.0106 11.3073 13.9857 11.2257 13.9409C10.9425 13.7883 10.6641 13.6374 10.3857 13.4848C9.28328 12.8843 8.17928 12.2838 7.08008 11.6784C6.98408 11.6253 6.91848 11.6502 6.83528 11.6949C5.45768 12.448 4.08008 13.1994 2.70088 13.9509C2.67688 13.9641 2.65288 13.9758 2.62728 13.9874C2.58568 14.0073 2.56488 13.9459 2.58088 13.8513C2.64328 13.4649 2.70248 13.0883 2.76488 12.7134C2.96808 11.4859 3.17608 10.2601 3.37448 9.03261C3.38408 8.97455 3.34408 8.88829 3.30088 8.8435C2.58568 8.11364 1.86088 7.3954 1.15208 6.6589C0.764879 6.25582 0.396879 5.83283 0.0352792 5.42975C-0.0271208 5.36008 -0.0047207 5.29207 0.0864793 5.27714C0.276879 5.24728 0.497679 5.21245 0.720079 5.17927C1.68808 5.0333 2.65768 4.88733 3.62568 4.7397C3.95048 4.68993 4.27368 4.63188 4.60008 4.59704C4.72328 4.58377 4.78248 4.53069 4.83368 4.42121C5.50888 2.99301 6.18888 1.56646 6.86728 0.139914C6.88168 0.108397 6.89768 0.0785388 6.91528 0.0453633C6.94248 -0.00605874 6.98408 -0.0160114 7.00968 0.0271168C7.02568 0.0536572 7.04008 0.0785389 7.05288 0.105079C7.73928 1.54655 8.42728 2.98803 9.11048 4.43282C9.16008 4.53733 9.21608 4.58211 9.33128 4.5987C10.7521 4.80937 12.1713 5.02666 13.5921 5.24231C13.6993 5.25889 13.8065 5.27382 13.9137 5.28875C14.0049 5.2987 14.0273 5.36505 13.9633 5.43472Z" fill="#FFA305"/>
</svg>
