<svg width="26" height="26" viewBox="0 0 26 26" fill="none" xmlns="http://www.w3.org/2000/svg">
<g opacity="0.2" clip-path="url(#clip0_11_32)">
<path d="M18.9582 0.993408C17.7383 1.01238 16.545 1.35292 15.4989 1.98062C14.4527 2.60832 13.5907 3.50097 12.9999 4.56841C12.4091 3.50097 11.5471 2.60832 10.5009 1.98062C9.45471 1.35292 8.26143 1.01238 7.04154 0.993408C5.09689 1.0779 3.26472 1.9286 1.9453 3.35966C0.625888 4.79072 -0.073523 6.68581 -0.000126565 8.63091C-0.000126565 15.9705 11.8689 24.4476 12.3737 24.8072L12.9999 25.2503L13.626 24.8072C14.1309 24.4497 25.9999 15.9705 25.9999 8.63091C26.0733 6.68581 25.3739 4.79072 24.0544 3.35966C22.735 1.9286 20.9029 1.0779 18.9582 0.993408ZM12.9999 22.5832C9.47579 19.9507 2.16654 13.4832 2.16654 8.63091C2.09248 7.26018 2.56344 5.91578 3.47668 4.89092C4.38993 3.86605 5.67138 3.24387 7.04154 3.16007C8.4117 3.24387 9.69315 3.86605 10.6064 4.89092C11.5196 5.91578 11.9906 7.26018 11.9165 8.63091H14.0832C14.0092 7.26018 14.4801 5.91578 15.3934 4.89092C16.3066 3.86605 17.588 3.24387 18.9582 3.16007C20.3284 3.24387 21.6098 3.86605 22.5231 4.89092C23.4363 5.91578 23.9073 7.26018 23.8332 8.63091C23.8332 13.4853 16.524 19.9507 12.9999 22.5832Z" fill="#222222"/>
</g>
<defs>
<clipPath id="clip0_11_32">
<rect width="26" height="26" fill="white"/>
</clipPath>
</defs>
</svg>
