<svg width="26" height="26" viewBox="0 0 26 26" fill="none" xmlns="http://www.w3.org/2000/svg">
<g clip-path="url(#clip0_196_412)">
<g clip-path="url(#clip1_196_412)">
<path d="M18.9587 0.993408C17.7388 1.01238 16.5455 1.35292 15.4994 1.98062C14.4532 2.60832 13.5912 3.50097 13.0004 4.56841C12.4096 3.50097 11.5475 2.60832 10.5014 1.98062C9.4552 1.35292 8.26192 1.01238 7.04203 0.993408C5.09738 1.0779 3.26521 1.9286 1.94579 3.35966C0.626376 4.79072 -0.0730347 6.68581 0.000361716 8.63091C0.000361716 15.9705 11.8694 24.4476 12.3742 24.8072L13.0004 25.2503L13.6265 24.8072C14.1314 24.4497 26.0004 15.9705 26.0004 8.63091C26.0738 6.68581 25.3743 4.79072 24.0549 3.35966C22.7355 1.9286 20.9033 1.0779 18.9587 0.993408Z" fill="#F13005"/>
</g>
</g>
<defs>
<clipPath id="clip0_196_412">
<rect width="26" height="26" fill="white"/>
</clipPath>
<clipPath id="clip1_196_412">
<rect width="26" height="26" fill="white"/>
</clipPath>
</defs>
</svg>
